<svg width="440" height="440" viewBox="0 0 440 440" fill="none" xmlns="http://www.w3.org/2000/svg">
<mask id="mask0_2_114" style="mask-type:alpha" maskUnits="userSpaceOnUse" x="20" y="20" width="400" height="400">
<circle cx="220" cy="220" r="200" fill="#F2E3C3"/>
</mask>
<g mask="url(#mask0_2_114)">
<circle cx="220" cy="220" r="200" fill="#F2E3C3"/>
<rect x="219" y="21" width="199" height="200" fill="#AB6C46"/>
<circle cx="220" cy="220" r="196" stroke="#20130E" stroke-width="8"/>
<rect x="50" y="225" width="10" height="50" rx="5" transform="rotate(-90 50 225)" fill="#20130E"/>
<rect x="340" y="225" width="10" height="50" rx="5" transform="rotate(-90 340 225)" fill="#20130E"/>
<rect x="215" y="340" width="10" height="50" rx="5" fill="#20130E"/>
<rect x="215" y="50" width="10" height="50" rx="5" fill="#20130E"/>
<rect x="150.098" y="92.9263" width="6" height="25" rx="3" transform="rotate(150 150.098 92.9263)" fill="#20130E"/>
<rect x="307.598" y="365.724" width="6" height="25" rx="3" transform="rotate(150 307.598 365.724)" fill="#20130E"/>
<rect x="95.9264" y="144.902" width="6" height="25" rx="3" transform="rotate(120 95.9264 144.902)" fill="#20130E"/>
<rect x="368.724" y="302.402" width="6" height="25" rx="3" transform="rotate(120 368.724 302.402)" fill="#20130E"/>
<rect x="92.9264" y="289.902" width="6" height="25" rx="3" transform="rotate(60 92.9264 289.902)" fill="#20130E"/>
<rect x="365.724" y="132.402" width="6" height="25" rx="3" transform="rotate(60 365.724 132.402)" fill="#20130E"/>
<rect x="144.902" y="344.074" width="6" height="25" rx="3" transform="rotate(30 144.902 344.074)" fill="#20130E"/>
<rect x="302.402" y="71.2757" width="6" height="25" rx="3" transform="rotate(30 302.402 71.2757)" fill="#20130E"/>
<circle cx="219.5" cy="220.5" r="11.5" fill="#20130E"/>
<rect x="115.071" y="331.723" width="10" height="148" rx="5" transform="rotate(-135 115.071 331.723)" fill="#20130E"/>
<rect x="220" y="227.071" width="10" height="74" rx="5" transform="rotate(-45 220 227.071)" fill="#20130E"/>
<mask id="mask1_2_114" style="mask-type:alpha" maskUnits="userSpaceOnUse" x="270" y="134" width="33" height="46">
<ellipse cx="286.5" cy="157" rx="16.5" ry="23" fill="#D9D9D9"/>
</mask>
<g mask="url(#mask1_2_114)">
<path d="M302 157C302 163.166 300.206 168.707 297.355 172.681C294.503 176.656 290.652 179 286.5 179C282.348 179 278.497 176.656 275.645 172.681C272.794 168.707 271 163.166 271 157C271 150.834 272.794 145.293 275.645 141.319C278.497 137.344 282.348 135 286.5 135C290.652 135 294.503 137.344 297.355 141.319C300.206 145.293 302 150.834 302 157Z" fill="#4C2C21" stroke="#20130E" stroke-width="2"/>
<path fill-rule="evenodd" clip-rule="evenodd" d="M287.118 133.118C287.118 133.118 287.118 133.118 287.743 133.533C288.368 133.947 288.368 133.947 288.368 133.947L288.366 133.951L288.353 133.97C288.341 133.988 288.323 134.017 288.299 134.055C288.251 134.133 288.18 134.251 288.09 134.408C287.91 134.721 287.656 135.189 287.368 135.794C286.793 137.004 286.084 138.761 285.559 140.931C284.51 145.269 284.196 151.25 287.138 157.852C290.239 164.812 289.941 170.692 288.848 174.843C288.303 176.913 287.562 178.548 286.954 179.67C286.649 180.23 286.378 180.664 286.18 180.96C286.081 181.109 286.001 181.223 285.944 181.301C285.915 181.341 285.892 181.371 285.876 181.393C285.868 181.403 285.861 181.412 285.857 181.418L285.851 181.426L285.849 181.429L285.848 181.429C285.847 181.43 285.847 181.43 285.257 180.967C284.667 180.505 284.667 180.505 284.666 180.505L284.668 180.503L284.679 180.488C284.69 180.474 284.707 180.451 284.73 180.419C284.776 180.356 284.845 180.259 284.933 180.128C285.107 179.866 285.355 179.472 285.635 178.955C286.196 177.92 286.888 176.397 287.397 174.461C288.414 170.6 288.714 165.075 285.767 158.462C282.661 151.492 282.993 145.161 284.101 140.579C284.654 138.29 285.402 136.435 286.014 135.149C286.319 134.506 286.592 134.004 286.789 133.66C286.888 133.488 286.968 133.356 287.025 133.265C287.053 133.219 287.075 133.184 287.091 133.159C287.099 133.147 287.105 133.137 287.11 133.13L287.115 133.122L287.117 133.119L287.118 133.118Z" fill="#20130E"/>
</g>
</g>
</svg>
